<svg xmlns="http://www.w3.org/2000/svg" xmlns:xlink="http://www.w3.org/1999/xlink" width="500" zoomAndPan="magnify" viewBox="0 0 375 374.999991" height="500" preserveAspectRatio="xMidYMid meet" version="1.0"><defs><clipPath id="68a2237847"><path d="M 218 41.859375 L 364 41.859375 L 364 332.859375 L 218 332.859375 Z M 218 41.859375 " clip-rule="nonzero"/></clipPath><clipPath id="793e0c664e"><path d="M 11 41.859375 L 157 41.859375 L 157 332.859375 L 11 332.859375 Z M 11 41.859375 " clip-rule="nonzero"/></clipPath></defs><g clip-path="url(#68a2237847)"><path fill="#29acff" d="M 218.285156 41.828125 L 218.285156 101.339844 L 304.390625 187.320312 L 218.285156 273.300781 L 218.285156 332.8125 L 363.988281 187.320312 Z M 218.285156 41.828125 " fill-opacity="1" fill-rule="nonzero"/></g><g clip-path="url(#793e0c664e)"><path fill="#29acff" d="M 156.976562 101.339844 L 156.976562 41.828125 L 11.273438 187.320312 L 156.976562 332.8125 L 156.976562 273.300781 L 70.871094 187.320312 Z M 156.976562 101.339844 " fill-opacity="1" fill-rule="nonzero"/></g><path fill="#29acff" d="M 116.46875 187.320312 L 187.628906 116.265625 L 258.785156 187.320312 L 187.628906 258.375 Z M 116.46875 187.320312 " fill-opacity="1" fill-rule="nonzero"/></svg>